<svg width="18" height="18" viewBox="0 0 18 18" fill="none" xmlns="http://www.w3.org/2000/svg">
<path d="M17.64 9.20455C17.64 8.56636 17.5827 7.95273 17.4764 7.36364H9V10.845H13.8436C13.635 11.9701 13.0009 12.9233 12.045 13.5218V15.8195H14.8573C16.6509 14.2527 17.64 11.9455 17.64 9.20455Z" fill="#4285F4"/>
<path d="M9 18C11.43 18 13.4673 17.1941 14.8573 15.8195L12.045 13.5218C11.2573 14.0114 10.2259 14.3305 9 14.3305C6.64091 14.3305 4.67659 12.7123 3.96409 10.5186H1.05727V12.8986C2.44727 15.7959 5.48182 18 9 18Z" fill="#34A853"/>
<path d="M3.96409 10.5186C3.78409 10.0291 3.68182 9.49364 3.68182 8.93182C3.68182 8.37 3.78409 7.83455 3.96409 7.345V5.02682H1.05727C0.377727 6.37045 0 7.61227 0 8.93182C0 10.2514 0.377727 11.4932 1.05727 12.8368L3.96409 10.5186Z" fill="#FBBC05"/>
<path d="M9 3.53182C10.3206 3.53182 11.5076 3.99016 12.4838 4.92012L14.9018 2.49876C13.4615 1.0892 11.4259 -0.000378132 9 -0.000378132C5.48182 -0.000378132 2.44727 2.20405 1.05727 5.10132L3.96409 7.3986C4.67659 5.20495 6.64091 3.53182 9 3.53182Z" fill="#EA4335"/>
</svg>
